<svg width="68" height="74" viewBox="0 0 68 74" fill="none" xmlns="http://www.w3.org/2000/svg">
<g filter="url(#filter0_d_25_666)">
<circle cx="34" cy="34" r="34" fill="#000002"/>
<circle cx="34" cy="34" r="33" stroke="#341D1A" stroke-width="2"/>
</g>
<g clip-path="url(#clip0_25_666)">
<path d="M30.7646 24.7367C30.3903 24.6841 30.3725 24.6666 30.5507 24.649C30.8894 24.5964 31.6737 24.6666 32.2263 24.7894C33.5097 25.0876 34.6684 25.8596 35.8983 27.2104L36.2192 27.5789L36.6826 27.5087C38.6613 27.1929 40.6933 27.4385 42.3867 28.2104C42.8502 28.421 43.581 28.842 43.6702 28.9473C43.7058 28.9824 43.7593 29.2104 43.7949 29.4385C43.9197 30.2631 43.8662 30.8771 43.5989 31.3508C43.4563 31.6139 43.4563 31.6841 43.5454 31.9122C43.6167 32.0876 43.8306 32.2104 44.0267 32.2104C44.4545 32.2104 44.9001 31.5438 45.114 30.6139L45.2031 30.2455L45.3636 30.421C46.2727 31.421 46.9857 32.8069 47.0926 33.7894L47.1283 34.0525L46.9678 33.8245C46.7005 33.421 46.4509 33.1578 46.1122 32.9297C45.5062 32.5262 44.8645 32.4034 43.1711 32.3157C41.6381 32.228 40.7646 32.1052 39.909 31.8245C38.4473 31.3508 37.6987 30.7367 35.9696 28.4736C35.2031 27.4736 34.7219 26.9297 34.2406 26.4736C33.1889 25.4736 32.1372 24.9473 30.7646 24.7367Z" fill="#FF007A"/>
<path d="M44.0447 26.9647C44.0803 26.2981 44.1694 25.8595 44.3655 25.456C44.4368 25.2981 44.5081 25.1577 44.5259 25.1577C44.5438 25.1577 44.5081 25.2805 44.4546 25.4209C44.312 25.8068 44.2942 26.3507 44.3833 26.9647C44.5081 27.7542 44.5616 27.8595 45.4172 28.7191C45.8094 29.1226 46.2728 29.6314 46.4511 29.8419L46.7541 30.2279L46.4511 29.9472C46.0767 29.5963 45.2211 28.9296 45.0251 28.8419C44.9003 28.7717 44.8825 28.7717 44.7933 28.8595C44.722 28.9296 44.7042 29.0349 44.7042 29.5437C44.6864 30.3332 44.5794 30.8244 44.312 31.3332C44.1694 31.5963 44.1516 31.5437 44.2764 31.2454C44.3655 31.0174 44.3833 30.9121 44.3833 30.1577C44.3833 28.6314 44.2051 28.263 43.1177 27.6489C42.8504 27.491 42.3869 27.263 42.1195 27.1402C41.8343 27.0174 41.6204 26.9121 41.6382 26.9121C41.6739 26.877 42.7256 27.1753 43.1356 27.3507C43.7595 27.5963 43.8664 27.6139 43.9377 27.5963C43.9912 27.5437 44.0268 27.4033 44.0447 26.9647Z" fill="#FF007A"/>
<path d="M31.4955 29.5788C30.7468 28.5613 30.2655 26.9823 30.3725 25.8069L30.4082 25.4385L30.5864 25.4736C30.9073 25.5262 31.4598 25.7367 31.7272 25.8946C32.4402 26.3157 32.7611 26.8946 33.0641 28.3332C33.1532 28.7543 33.278 29.2455 33.3315 29.4034C33.4206 29.6665 33.7593 30.2806 34.0445 30.6665C34.2406 30.9472 34.1158 31.0876 33.6702 31.0525C32.9928 30.9823 32.0837 30.3683 31.4955 29.5788Z" fill="#FF007A"/>
<path d="M43.1356 37.2105C39.6062 35.807 38.3584 34.5965 38.3584 32.5439C38.3584 32.2456 38.3762 32 38.3762 32C38.394 32 38.5188 32.1053 38.6793 32.2281C39.3923 32.7895 40.1944 33.0351 42.4226 33.3509C43.7238 33.5439 44.4725 33.6842 45.1498 33.9123C47.3067 34.614 48.6436 36.0526 48.9645 38C49.0536 38.5614 49.0001 39.6316 48.8575 40.193C48.7327 40.6316 48.3762 41.4386 48.2871 41.4561C48.2693 41.4561 48.2336 41.3684 48.2336 41.2281C48.198 40.4912 47.8236 39.7895 47.1998 39.2456C46.4511 38.614 45.4885 38.1403 43.1356 37.2105Z" fill="#FF007A"/>
<path d="M40.6399 37.7896C40.6042 37.5264 40.5151 37.1931 40.4616 37.0527L40.3725 36.7896L40.5329 36.9825C40.7647 37.2457 40.9429 37.5615 41.1034 38.0001C41.2281 38.3334 41.2281 38.4387 41.2281 38.9825C41.2281 39.5088 41.2103 39.6317 41.1034 39.9299C40.9251 40.4036 40.7112 40.7369 40.3547 41.1053C39.713 41.7545 38.8752 42.1053 37.6809 42.2632C37.467 42.2808 36.8609 42.3334 36.3262 42.3685C34.9893 42.4387 34.098 42.579 33.2959 42.8597C33.1889 42.8948 33.082 42.9299 33.0641 42.9124C33.0285 42.8773 33.5811 42.5615 34.0267 42.351C34.6506 42.0527 35.2923 41.8948 36.7005 41.6492C37.3957 41.5439 38.1087 41.4036 38.287 41.3334C40.0517 40.7895 40.9251 39.4387 40.6399 37.7896Z" fill="#FF007A"/>
<path d="M42.2619 40.6142C41.7985 39.6142 41.6915 38.6669 41.9411 37.7721C41.9767 37.6844 42.0124 37.5967 42.048 37.5967C42.0837 37.5967 42.1906 37.6493 42.2976 37.7195C42.5115 37.8598 42.9571 38.1055 44.0979 38.7195C45.5418 39.4914 46.3618 40.0879 46.9322 40.7721C47.4313 41.3686 47.7343 42.0528 47.8769 42.8949C47.966 43.3686 47.9126 44.509 47.7878 44.9826C47.3956 46.4739 46.5044 47.6669 45.2031 48.3511C45.007 48.4563 44.8466 48.5265 44.8288 48.5265C44.8109 48.5265 44.8823 48.3511 44.9892 48.1405C45.417 47.2458 45.4705 46.3862 45.1496 45.4212C44.9536 44.8247 44.5436 44.1055 43.7236 42.8949C42.7432 41.4914 42.5115 41.123 42.2619 40.6142Z" fill="#FF007A"/>
<path d="M28.9822 45.9823C30.3013 44.8946 31.9234 44.1227 33.4207 43.8771C34.0625 43.7718 35.132 43.8069 35.7202 43.9648C36.665 44.2104 37.5206 44.7367 37.9662 45.3858C38.394 46.0174 38.5901 46.5613 38.7862 47.7718C38.8575 48.2455 38.9466 48.7367 38.9644 48.842C39.107 49.4736 39.3922 49.9648 39.7487 50.2279C40.3013 50.6314 41.2639 50.649 42.2086 50.2981C42.3691 50.2455 42.5117 50.1929 42.5117 50.2104C42.5473 50.2455 42.066 50.5613 41.7452 50.7192C41.2995 50.9472 40.943 51.0174 40.4617 51.0174C39.6061 51.0174 38.8753 50.5788 38.2871 49.7016C38.1623 49.5262 37.9127 49.0174 37.6988 48.5437C37.0749 47.1227 36.7541 46.7016 36.0232 46.2279C35.3815 45.8244 34.5616 45.7367 33.9377 46.035C33.1177 46.4209 32.9038 47.456 33.4742 48.0876C33.7059 48.3507 34.1338 48.5613 34.4903 48.6139C35.1498 48.7016 35.7202 48.1929 35.7202 47.5437C35.7202 47.1227 35.5598 46.8771 35.132 46.6841C34.5616 46.4385 33.9377 46.7192 33.9555 47.263C33.9555 47.4911 34.0625 47.6315 34.2942 47.7367C34.4368 47.8069 34.4368 47.8069 34.3298 47.7893C33.8129 47.6841 33.6881 47.0525 34.0981 46.649C34.5972 46.1578 35.6489 46.3683 36.0054 47.0525C36.148 47.3332 36.1658 47.8946 36.0411 48.2455C35.738 49.0174 34.8824 49.4209 34.009 49.1929C33.4207 49.035 33.1712 48.8771 32.4582 48.1578C31.2104 46.8946 30.7291 46.649 28.9466 46.3858L28.6079 46.3332L28.9822 45.9823Z" fill="#FF007A"/>
<path fill-rule="evenodd" clip-rule="evenodd" d="M19.6061 17.7544C23.7594 22.7193 30.1587 30.4386 30.4796 30.8596C30.7469 31.2105 30.64 31.5439 30.1944 31.7895C29.9448 31.9298 29.4279 32.0702 29.1783 32.0702C28.8931 32.0702 28.5544 31.9298 28.3227 31.7018C28.1623 31.5439 27.4671 30.5439 25.8985 28.1404C24.7042 26.2982 23.6881 24.7719 23.6703 24.7544C23.599 24.7193 23.599 24.7193 25.7737 28.5439C27.1462 30.9474 27.5919 31.807 27.5919 31.9123C27.5919 32.1403 27.5206 32.2632 27.2354 32.5789C26.7541 33.1053 26.5402 33.7018 26.3797 34.9474C26.2015 36.3333 25.7202 37.3158 24.3477 38.9825C23.5455 39.9649 23.4207 40.1403 23.2247 40.5439C22.9751 41.0351 22.9038 41.3158 22.8682 41.9474C22.8325 42.614 22.9038 43.0351 23.0999 43.6667C23.2781 44.2281 23.4742 44.5965 23.9555 45.3158C24.3655 45.9474 24.615 46.421 24.615 46.5965C24.615 46.7368 24.6507 46.7368 25.2924 46.5965C26.8254 46.2456 28.091 45.6491 28.7862 44.9123C29.214 44.4561 29.3209 44.2105 29.3209 43.5789C29.3209 43.1754 29.3031 43.0877 29.1961 42.8421C29.0179 42.4561 28.6792 42.1403 27.9484 41.6491C26.9858 41 26.5758 40.4737 26.4689 39.7719C26.3797 39.1754 26.4867 38.7719 27.0215 37.6667C27.574 36.5263 27.7166 36.0526 27.8058 34.8947C27.8592 34.1579 27.9484 33.8596 28.1623 33.6316C28.394 33.386 28.5901 33.2982 29.1427 33.2281C30.0518 33.1053 30.64 32.8772 31.1034 32.4386C31.5134 32.0702 31.6917 31.7018 31.7095 31.1579L31.7273 30.7544L31.4956 30.5088C30.6578 29.5614 19.0535 17 19.0001 17C18.9822 17 19.2674 17.3333 19.6061 17.7544ZM25.0785 42.7018C25.2746 42.3684 25.1676 41.9474 24.8468 41.7368C24.5437 41.5439 24.0803 41.6316 24.0803 41.8947C24.0803 41.9649 24.1159 42.0351 24.2229 42.0702C24.3833 42.1579 24.4011 42.2456 24.2764 42.4386C24.1516 42.6316 24.1516 42.807 24.312 42.9298C24.5616 43.1228 24.9002 43.0175 25.0785 42.7018Z" fill="#FF007A"/>
<path fill-rule="evenodd" clip-rule="evenodd" d="M32.2977 33.4735C31.8699 33.5964 31.4599 34.0525 31.3352 34.5086C31.2639 34.7893 31.2995 35.2981 31.4243 35.456C31.6204 35.7016 31.7986 35.7718 32.2977 35.7718C33.2781 35.7718 34.1159 35.3507 34.205 34.842C34.2942 34.4209 33.9198 33.842 33.4029 33.5788C33.1355 33.4385 32.5829 33.3858 32.2977 33.4735ZM33.4386 34.3507C33.5812 34.1402 33.5277 33.9121 33.2603 33.7543C32.779 33.456 32.0482 33.7016 32.0482 34.1578C32.0482 34.3858 32.4225 34.6314 32.779 34.6314C33.0107 34.6314 33.3316 34.4911 33.4386 34.3507Z" fill="#FF007A"/>
</g>
<defs>
<filter id="filter0_d_25_666" x="0" y="0" width="68" height="74" filterUnits="userSpaceOnUse" color-interpolation-filters="sRGB">
<feFlood flood-opacity="0" result="BackgroundImageFix"/>
<feColorMatrix in="SourceAlpha" type="matrix" values="0 0 0 0 0 0 0 0 0 0 0 0 0 0 0 0 0 0 127 0" result="hardAlpha"/>
<feOffset dy="6"/>
<feComposite in2="hardAlpha" operator="out"/>
<feColorMatrix type="matrix" values="0 0 0 0 0 0 0 0 0 0 0 0 0 0 0 0 0 0 0.25 0"/>
<feBlend mode="normal" in2="BackgroundImageFix" result="effect1_dropShadow_25_666"/>
<feBlend mode="normal" in="SourceGraphic" in2="effect1_dropShadow_25_666" result="shape"/>
</filter>
<clipPath id="clip0_25_666">
<rect width="30" height="34" fill="white" transform="translate(19 17)"/>
</clipPath>
</defs>
</svg>
