<svg width="70" height="74" viewBox="0 0 70 74" fill="none" xmlns="http://www.w3.org/2000/svg">
<g filter="url(#filter0_d_25_678)">
<circle cx="34" cy="34" r="34" fill="#000002"/>
<circle cx="34" cy="34" r="33" stroke="#341D1A" stroke-width="2"/>
</g>
<g clip-path="url(#clip0_25_678)">
<path fill-rule="evenodd" clip-rule="evenodd" d="M32.5 38.825C29.0068 38.825 26.175 35.9932 26.175 32.5C26.175 29.0068 29.0068 26.175 32.5 26.175V21C26.1483 21 21 26.1483 21 32.5C21 38.8508 26.1483 44 32.5 44C38.8508 44 44 38.8517 44 32.5H38.825C38.825 35.9932 35.9932 38.825 32.5 38.825Z" fill="#2354E6"/>
<path fill-rule="evenodd" clip-rule="evenodd" d="M32.5 32.4998H38.825V26.1748H32.5V32.4998Z" fill="#17E6A1"/>
</g>
<defs>
<filter id="filter0_d_25_678" x="0" y="0" width="68" height="74" filterUnits="userSpaceOnUse" color-interpolation-filters="sRGB">
<feFlood flood-opacity="0" result="BackgroundImageFix"/>
<feColorMatrix in="SourceAlpha" type="matrix" values="0 0 0 0 0 0 0 0 0 0 0 0 0 0 0 0 0 0 127 0" result="hardAlpha"/>
<feOffset dy="6"/>
<feComposite in2="hardAlpha" operator="out"/>
<feColorMatrix type="matrix" values="0 0 0 0 0 0 0 0 0 0 0 0 0 0 0 0 0 0 0.25 0"/>
<feBlend mode="normal" in2="BackgroundImageFix" result="effect1_dropShadow_25_678"/>
<feBlend mode="normal" in="SourceGraphic" in2="effect1_dropShadow_25_678" result="shape"/>
</filter>
<clipPath id="clip0_25_678">
<rect width="23" height="23" fill="white" transform="translate(21 21)"/>
</clipPath>
</defs>
</svg>
