<svg width="70" height="74" viewBox="0 0 70 74" fill="none" xmlns="http://www.w3.org/2000/svg">
<g filter="url(#filter0_d_25_706)">
<circle cx="35" cy="34" r="34" fill="#000002"/>
<circle cx="35" cy="34" r="33" stroke="#341D1A" stroke-width="2"/>
</g>
<g clip-path="url(#clip0_25_706)">
<path d="M38.7458 30.4989C37.899 29.6595 36.7616 29.1895 35.5772 29.1895C34.3927 29.1895 33.2554 29.6595 32.4086 30.4989C31.9936 30.919 31.6647 31.4182 31.4408 31.9677C31.2169 32.5172 31.1025 33.1062 31.1041 33.7007C31.1057 34.2952 31.2233 34.8835 31.4501 35.4318C31.6769 35.98 32.0085 36.4774 32.4258 36.8953C33.27 37.7449 34.4105 38.2233 35.6002 38.2271C36.79 38.2309 37.9334 37.7597 38.7829 36.9156C38.8143 36.8837 38.9372 36.7476 39.1543 36.5044L37.04 34.3761C36.8229 34.6309 36.7086 34.7641 36.6943 34.7757C36.4074 35.065 36.0191 35.2274 35.6143 35.2274C35.2096 35.2274 34.8213 35.065 34.5343 34.7757C34.2495 34.4923 34.0875 34.1058 34.0837 33.7013C34.0799 33.2968 34.2348 32.9073 34.5143 32.6185C34.8028 32.3367 35.1887 32.1808 35.5893 32.184C35.9898 32.1873 36.3732 32.3495 36.6572 32.6358L42.3086 38.32C41.5279 39.4517 40.4902 40.3766 39.2828 41.0166C38.0755 41.6566 36.734 41.993 35.3715 41.9974C33.9401 41.9979 32.5325 41.627 31.2826 40.9202C30.0327 40.2134 28.9821 39.194 28.2309 37.9593C27.4797 36.7245 27.0528 35.3155 26.9909 33.8662C26.929 32.417 27.2342 30.9758 27.8773 29.6799C28.5205 28.384 29.4802 27.2765 30.6652 26.4628C31.8502 25.6492 33.2209 25.1565 34.6469 25.0316C36.073 24.9067 37.5068 25.1539 38.8119 25.7495C40.117 26.3451 41.25 27.2694 42.1029 28.4343C41.8553 28.7277 41.2181 29.4584 40.1915 30.6263L42.2858 32.714L45.7372 28.7904C44.9028 26.8986 43.5801 25.2701 41.9087 24.0764C40.2373 22.8828 38.2791 22.1684 36.2405 22.0085C34.2019 21.8485 32.1585 22.2491 30.3258 23.1678C28.4931 24.0865 26.9389 25.4894 25.8271 27.2286C24.7154 28.9677 24.0873 30.9787 24.0091 33.0494C23.9308 35.1201 24.4053 37.1738 25.3826 38.994C26.3598 40.8142 27.8035 42.3335 29.5616 43.3916C31.3196 44.4497 33.3268 45.0074 35.3715 45.006C38.2286 45.006 40.5915 44.1054 42.9029 42.1103C44.2319 40.9238 45.289 39.4572 46 37.8132L38.7458 30.4989Z" fill="url(#paint0_linear_25_706)"/>
</g>
<defs>
<filter id="filter0_d_25_706" x="1" y="0" width="68" height="74" filterUnits="userSpaceOnUse" color-interpolation-filters="sRGB">
<feFlood flood-opacity="0" result="BackgroundImageFix"/>
<feColorMatrix in="SourceAlpha" type="matrix" values="0 0 0 0 0 0 0 0 0 0 0 0 0 0 0 0 0 0 127 0" result="hardAlpha"/>
<feOffset dy="6"/>
<feComposite in2="hardAlpha" operator="out"/>
<feColorMatrix type="matrix" values="0 0 0 0 0 0 0 0 0 0 0 0 0 0 0 0 0 0 0.25 0"/>
<feBlend mode="normal" in2="BackgroundImageFix" result="effect1_dropShadow_25_706"/>
<feBlend mode="normal" in="SourceGraphic" in2="effect1_dropShadow_25_706" result="shape"/>
</filter>
<linearGradient id="paint0_linear_25_706" x1="45.6666" y1="34.1577" x2="23.6805" y2="34.1577" gradientUnits="userSpaceOnUse">
<stop stop-color="#22E6B8"/>
<stop offset="1" stop-color="#00C1CE"/>
</linearGradient>
<clipPath id="clip0_25_706">
<rect width="22" height="23" fill="white" transform="translate(24 22)"/>
</clipPath>
</defs>
</svg>
