<svg width="70" height="74" viewBox="0 0 70 74" fill="none" xmlns="http://www.w3.org/2000/svg">
<g filter="url(#filter0_d_25_715)">
<circle cx="35" cy="34" r="34" fill="#000002"/>
<circle cx="35" cy="34" r="33" stroke="#341D1A" stroke-width="2"/>
</g>
<g clip-path="url(#clip0_25_715)">
<path fill-rule="evenodd" clip-rule="evenodd" d="M27.1356 25.5938C26.7729 23.725 28.224 22 30.1104 22C31.7792 22 33.1577 23.3656 33.1577 25.0187V28.7562C33.5931 28.7562 34.0284 28.6844 34.4637 28.6844C34.8991 28.6844 35.2618 28.6844 35.6972 28.7562V25.0187C35.6972 23.3656 37.0757 22 38.7445 22C40.6309 22 42.082 23.725 41.7918 25.5938L40.9937 29.9781C43.8233 31.2 46 33.3562 46 36.0156V37.6687C46 39.8969 44.5489 41.7656 42.4448 42.9875C40.3407 44.2812 37.5836 45 34.4637 45C31.3438 45 28.5868 44.2812 26.4826 42.9875C24.4511 41.7656 23 39.8969 23 37.6687V36.0156C23 33.3562 25.1041 31.2 27.9338 29.9781L27.1356 25.5938ZM39.9054 30.5531L40.8486 25.3781C41.0662 24.0844 40.123 22.8625 38.7445 22.8625C37.5836 22.8625 36.6404 23.7969 36.6404 24.9469V29.6906C36.3502 29.6188 35.9874 29.6188 35.6972 29.6188C35.2618 29.6188 34.8991 29.5469 34.4637 29.5469C34.0284 29.5469 33.5931 29.5469 33.1577 29.6188C32.8675 29.6188 32.5047 29.6906 32.2145 29.6906V25.0187C32.2145 23.8687 31.2713 22.9344 30.1104 22.9344C28.8044 22.9344 27.7886 24.1563 28.0789 25.45L29.0221 30.625C25.9748 31.775 23.9432 33.7875 23.9432 36.0875V37.7406C23.9432 41.2625 28.6593 44.1375 34.4637 44.1375C40.2681 44.1375 44.9842 41.2625 44.9842 37.7406V36.0875C45.0568 33.7156 43.0252 31.7031 39.9054 30.5531Z" fill="#633001"/>
<path d="M45.0569 37.6687C45.0569 41.1906 40.3408 44.0656 34.5364 44.0656C28.732 44.0656 24.0159 41.1906 24.0159 37.6687V36.0156H45.1294V37.6687H45.0569Z" fill="#FEDC90"/>
<path fill-rule="evenodd" clip-rule="evenodd" d="M28.079 25.4502C27.7887 24.1564 28.8045 22.9346 30.1105 22.9346C31.2714 22.9346 32.2146 23.8689 32.2146 25.0189V29.7627C32.9402 29.6908 33.6657 29.6189 34.4638 29.6189C35.1894 29.6189 35.9149 29.6908 36.6405 29.7627V25.0189C36.6405 23.8689 37.5837 22.9346 38.7446 22.9346C40.0506 22.9346 41.0663 24.1564 40.8487 25.4502L39.9055 30.6252C42.9528 31.7752 45.0569 33.7877 45.0569 36.0877C45.0569 39.6096 40.3408 42.4846 34.5364 42.4846C28.732 42.4846 24.0159 39.6096 24.0159 36.0877C24.0159 33.7877 26.0474 31.7752 29.0947 30.6252L28.079 25.4502Z" fill="#D1884F"/>
<path d="M31.5615 35.5844C31.5615 36.5187 31.0536 37.3094 30.4006 37.3094C29.7476 37.3094 29.2397 36.5187 29.2397 35.5844C29.2397 34.65 29.7476 33.8594 30.4006 33.8594C31.0536 33.8594 31.5615 34.65 31.5615 35.5844Z" fill="#633001"/>
<path d="M39.6152 35.5844C39.6152 36.5187 39.1073 37.3094 38.4543 37.3094C37.8013 37.3094 37.2935 36.5187 37.2935 35.5844C37.2935 34.65 37.8013 33.8594 38.4543 33.8594C39.1073 33.8594 39.6152 34.65 39.6152 35.5844Z" fill="#633001"/>
</g>
<defs>
<filter id="filter0_d_25_715" x="1" y="0" width="68" height="74" filterUnits="userSpaceOnUse" color-interpolation-filters="sRGB">
<feFlood flood-opacity="0" result="BackgroundImageFix"/>
<feColorMatrix in="SourceAlpha" type="matrix" values="0 0 0 0 0 0 0 0 0 0 0 0 0 0 0 0 0 0 127 0" result="hardAlpha"/>
<feOffset dy="6"/>
<feComposite in2="hardAlpha" operator="out"/>
<feColorMatrix type="matrix" values="0 0 0 0 0 0 0 0 0 0 0 0 0 0 0 0 0 0 0.25 0"/>
<feBlend mode="normal" in2="BackgroundImageFix" result="effect1_dropShadow_25_715"/>
<feBlend mode="normal" in="SourceGraphic" in2="effect1_dropShadow_25_715" result="shape"/>
</filter>
<clipPath id="clip0_25_715">
<rect width="23" height="23" fill="white" transform="translate(23 22)"/>
</clipPath>
</defs>
</svg>
