<svg width="70" height="74" viewBox="0 0 70 74" fill="none" xmlns="http://www.w3.org/2000/svg">
<g filter="url(#filter0_d_25_723)">
<circle cx="35" cy="34" r="34" fill="#000002"/>
<circle cx="35" cy="34" r="33" stroke="#341D1A" stroke-width="2"/>
</g>
<g clip-path="url(#clip0_25_723)">
<path d="M24.8505 28.676C24.4755 29.1151 23.8755 29.4615 23.2755 29.412C23.2005 28.8183 23.4942 28.1874 23.838 27.7978C24.213 27.3463 24.8692 27.0247 25.4005 27C25.463 27.6185 25.2192 28.2245 24.8505 28.676ZM25.3942 29.5295C24.5255 29.48 23.7817 30.0181 23.3692 30.0181C22.9505 30.0181 22.3192 29.5542 21.6317 29.5666C20.738 29.579 19.9067 30.0799 19.4505 30.8777C18.513 32.4734 19.2067 34.8359 20.113 36.1346C20.5567 36.7778 21.088 37.4829 21.788 37.4581C22.4505 37.4334 22.713 37.0314 23.513 37.0314C24.3192 37.0314 24.5505 37.4581 25.2505 37.4458C25.9755 37.4334 26.4317 36.8026 26.8755 36.1594C27.3817 35.4296 27.588 34.7184 27.6005 34.6813C27.588 34.6689 26.2005 34.1432 26.188 32.5599C26.1755 31.2364 27.2817 30.6056 27.3317 30.5685C26.7067 29.6532 25.7317 29.5542 25.3942 29.5295ZM30.413 27.736V37.3777H31.9255V34.0814H34.0192C35.9317 34.0814 37.2755 32.7826 37.2755 30.9025C37.2755 29.0224 35.9567 27.736 34.0692 27.736H30.413ZM31.9255 28.9976H33.6692C34.9817 28.9976 35.7317 29.6903 35.7317 30.9087C35.7317 32.127 34.9817 32.8259 33.663 32.8259H31.9255V28.9976ZM40.038 37.452C40.988 37.452 41.8692 36.9757 42.2692 36.2212H42.3005V37.3777H43.7005V32.5785C43.7005 31.187 42.5755 30.2902 40.8442 30.2902C39.238 30.2902 38.0505 31.1993 38.0067 32.4486H39.3692C39.4817 31.8549 40.038 31.4653 40.8005 31.4653C41.7255 31.4653 42.2442 31.892 42.2442 32.6775V33.2093L40.3567 33.3206C38.6005 33.4258 37.6505 34.137 37.6505 35.3739C37.6505 36.6232 38.6317 37.452 40.038 37.452ZM40.4442 36.3078C39.638 36.3078 39.1255 35.9244 39.1255 35.3368C39.1255 34.7307 39.6192 34.3782 40.563 34.3226L42.2442 34.2174V34.7617C42.2442 35.6646 41.4692 36.3078 40.4442 36.3078ZM45.5692 40C47.0442 40 47.738 39.4434 48.3442 37.755L51.0005 30.383H49.463L47.6817 36.079H47.6505L45.8692 30.383H44.288L46.8505 37.4025L46.713 37.8292C46.4817 38.5528 46.1067 38.8311 45.438 38.8311C45.3192 38.8311 45.088 38.8187 44.9942 38.8064V39.9629C45.0817 39.9876 45.4567 40 45.5692 40Z" fill="white"/>
</g>
<defs>
<filter id="filter0_d_25_723" x="1" y="0" width="68" height="74" filterUnits="userSpaceOnUse" color-interpolation-filters="sRGB">
<feFlood flood-opacity="0" result="BackgroundImageFix"/>
<feColorMatrix in="SourceAlpha" type="matrix" values="0 0 0 0 0 0 0 0 0 0 0 0 0 0 0 0 0 0 127 0" result="hardAlpha"/>
<feOffset dy="6"/>
<feComposite in2="hardAlpha" operator="out"/>
<feColorMatrix type="matrix" values="0 0 0 0 0 0 0 0 0 0 0 0 0 0 0 0 0 0 0.25 0"/>
<feBlend mode="normal" in2="BackgroundImageFix" result="effect1_dropShadow_25_723"/>
<feBlend mode="normal" in="SourceGraphic" in2="effect1_dropShadow_25_723" result="shape"/>
</filter>
<clipPath id="clip0_25_723">
<rect width="32" height="13" fill="white" transform="translate(19 27)"/>
</clipPath>
</defs>
</svg>
